<svg xmlns="http://www.w3.org/2000/svg"  viewBox="0 0 64 64" width="64px" height="64px"><linearGradient id="rhA40cqBlsJ1wx2ZjgJTqa" x1="32.526" x2="32.526" y1="16.627" y2="56.834" gradientUnits="userSpaceOnUse"><stop offset="0" stop-color="#6dc7ff"/><stop offset="1" stop-color="#e6abff"/></linearGradient><path fill="url(#rhA40cqBlsJ1wx2ZjgJTqa)" d="M35.52,38.891h6.729l1.057-6.835H35.52v-3.736c0-2.839,0.928-5.358,3.584-5.358h4.268v-5.966c-0.75-0.101-2.335-0.323-5.332-0.323c-6.258,0-9.926,3.305-9.926,10.834v4.548h-6.433v6.835h6.433v17.788C29.385,56.869,30.676,57,32,57c1.197,0,2.366-0.109,3.52-0.266V38.891z"/><linearGradient id="rhA40cqBlsJ1wx2ZjgJTqb" x1="32" x2="32" y1="58" y2="6" gradientTransform="matrix(1 0 0 -1 0 64)" gradientUnits="userSpaceOnUse"><stop offset="0" stop-color="#1a6dff"/><stop offset="1" stop-color="#c822ff"/></linearGradient><path fill="none" stroke="url(#rhA40cqBlsJ1wx2ZjgJTqb)" stroke-miterlimit="10" stroke-width="2" d="M32 7A25 25 0 1 0 32 57A25 25 0 1 0 32 7Z"/></svg>